<svg width="24" height="24" viewBox="0 0 24 24" fill="none" xmlns="http://www.w3.org/2000/svg">
<rect x="0.7" y="0.7" width="22.6" height="22.6" rx="11.3" stroke="#40454F" stroke-width="1.4"/>
<path fill-rule="evenodd" clip-rule="evenodd" d="M8.83913 6.80333C8.45253 6.80333 8.13913 7.11673 8.13913 7.50333C8.13913 7.88992 8.45253 8.20332 8.83913 8.20332L14.783 8.20332L7.0772 15.9091C6.80384 16.1825 6.80384 16.6257 7.0772 16.8991C7.35057 17.1724 7.79378 17.1724 8.06715 16.8991L15.7753 9.19088V15.1395C15.7753 15.5261 16.0887 15.8395 16.4753 15.8395C16.8619 15.8395 17.1753 15.5261 17.1753 15.1395V7.58608C17.1753 7.15378 16.8249 6.80332 16.3926 6.80332L8.83913 6.80333Z" fill="#40454F"/>
</svg>
