<svg width="31" height="32" viewBox="0 0 31 32" fill="none" xmlns="http://www.w3.org/2000/svg">
<g filter="url(#filter0_d_53_18)">
<rect x="4.2" y="1.2" width="22.6" height="22.6" rx="11.3" stroke="#40454F" stroke-width="1.4" shape-rendering="crispEdges"/>
<path fill-rule="evenodd" clip-rule="evenodd" d="M16.9194 6.57181C16.6461 6.29844 16.2029 6.29844 15.9295 6.57181C15.6561 6.84518 15.6561 7.28839 15.9295 7.56176L20.1324 11.7647L9.23479 11.7647C8.84819 11.7647 8.53479 12.0781 8.53479 12.4647C8.53479 12.8513 8.84819 13.1647 9.23479 13.1647L20.1358 13.1647L15.9295 17.371C15.6561 17.6444 15.6561 18.0876 15.9295 18.361C16.2029 18.6344 16.6461 18.6344 16.9194 18.361L22.2605 13.0199C22.5662 12.7142 22.5662 12.2186 22.2605 11.9129L16.9194 6.57181Z" fill="#40454F"/>
</g>
<defs>
<filter id="filter0_d_53_18" x="0.5" y="0.5" width="30" height="31" filterUnits="userSpaceOnUse" color-interpolation-filters="sRGB">
<feFlood flood-opacity="0" result="BackgroundImageFix"/>
<feColorMatrix in="SourceAlpha" type="matrix" values="0 0 0 0 0 0 0 0 0 0 0 0 0 0 0 0 0 0 127 0" result="hardAlpha"/>
<feOffset dy="4"/>
<feGaussianBlur stdDeviation="1.5"/>
<feComposite in2="hardAlpha" operator="out"/>
<feColorMatrix type="matrix" values="0 0 0 0 0 0 0 0 0 0 0 0 0 0 0 0 0 0 0.05 0"/>
<feBlend mode="normal" in2="BackgroundImageFix" result="effect1_dropShadow_53_18"/>
<feBlend mode="normal" in="SourceGraphic" in2="effect1_dropShadow_53_18" result="shape"/>
</filter>
</defs>
</svg>
