<svg width="48" height="48" viewBox="0 0 48 48" fill="none" xmlns="http://www.w3.org/2000/svg">
<path fill-rule="evenodd" clip-rule="evenodd" d="M16.6177 9.77783C13.9177 9.77783 11.7289 11.9666 11.7289 14.6666V17.3889V18.5556C11.7289 19.1079 12.1766 19.5556 12.7289 19.5556C13.2812 19.5556 13.7289 19.1079 13.7289 18.5556V17.3889V14.6666C13.7289 13.0712 15.0223 11.7778 16.6177 11.7778H35.2825C36.878 11.7778 38.1713 13.0712 38.1713 14.6666V33.3335C38.1713 34.9289 36.878 36.2223 35.2825 36.2223H16.6177C15.0223 36.2223 13.7289 34.9289 13.7289 33.3335V30.6112V29.4445C13.7289 28.8922 13.2812 28.4445 12.7289 28.4445C12.1766 28.4445 11.7289 28.8922 11.7289 29.4445V30.6112V33.3335C11.7289 36.0335 13.9177 38.2223 16.6177 38.2223H35.2825C37.9825 38.2223 40.1713 36.0335 40.1713 33.3335V14.6666C40.1713 11.9666 37.9825 9.77783 35.2825 9.77783H16.6177ZM22.1091 18.0604C22.4996 17.6698 23.1327 17.6698 23.5232 18.0603L28.788 23.3251C29.2037 23.7408 29.2037 24.4148 28.788 24.8305L23.5235 30.0949C23.1329 30.4854 22.4998 30.4854 22.1093 30.0949C21.7188 29.7043 21.7188 29.0711 22.1093 28.6806L25.7898 25.0002H8.82869C8.2764 25.0002 7.82869 24.5524 7.82869 24.0002C7.82869 23.4479 8.2764 23.0002 8.82869 23.0002H25.6346L22.1091 19.4746C21.7186 19.0841 21.7186 18.4509 22.1091 18.0604Z" fill="#40454F"/>
</svg>
