<svg width="16" height="12" viewBox="0 0 16 12" fill="none" xmlns="http://www.w3.org/2000/svg">
<path d="M14.9926 2.13761L6.08493 11.0453C6.00735 11.1231 5.91516 11.1849 5.81366 11.227C5.71215 11.2692 5.60332 11.2909 5.49341 11.2909C5.3835 11.2909 5.27467 11.2692 5.17316 11.227C5.07166 11.1849 4.97947 11.1231 4.90189 11.0453L1.00478 7.14817C0.927103 7.07049 0.865484 6.97827 0.823444 6.87678C0.781403 6.77529 0.759766 6.6665 0.759766 6.55665C0.759766 6.44679 0.781403 6.33801 0.823444 6.23652C0.865484 6.13502 0.927103 6.0428 1.00478 5.96512C1.08246 5.88744 1.17468 5.82582 1.27618 5.78378C1.37767 5.74174 1.48645 5.72011 1.59631 5.72011C1.70616 5.72011 1.81494 5.74174 1.91644 5.78378C2.01793 5.82582 2.11015 5.88744 2.18783 5.96512L5.49411 9.2714L13.8109 0.955955C13.9678 0.799073 14.1806 0.710938 14.4025 0.710938C14.6243 0.710938 14.8371 0.799073 14.994 0.955955C15.1509 1.11284 15.239 1.32561 15.239 1.54748C15.239 1.76934 15.1509 1.98212 14.994 2.139L14.9926 2.13761Z" fill="white"/>
</svg>
