<svg width="115" height="48" viewBox="0 0 115 48" fill="none" xmlns="http://www.w3.org/2000/svg">
<g clip-path="url(#clip0_2_783)">
<path d="M44.4377 24.312L44.2734 21.852L45.5874 21.7245V14.8335L44.2734 14.6865L44.4384 12.396H50.4137V14.8522L49.2122 14.9797V17.0152H53.1834V14.9797L51.8544 14.8522L52.0187 12.396H57.9917V14.8522L56.8082 14.9797V21.8895L58.1559 21.999L57.9917 24.312H52.0187L51.8544 21.852L53.1834 21.7245V19.617H49.2122V21.7432L50.5779 21.837L50.4137 24.312H44.4377Z" fill="#535861"/>
<path fill-rule="evenodd" clip-rule="evenodd" d="M64.0962 14.7618C60.7782 14.7618 58.9414 16.5573 58.9414 19.6368C58.9414 22.6968 60.7789 24.7143 64.0962 24.7143C67.2252 24.7143 69.2704 22.7163 69.2704 19.6368C69.2704 16.5573 67.4142 14.7618 64.0962 14.7618ZM64.0917 17.1806C65.3127 17.1806 65.6749 18.0783 65.6749 19.6743C65.6749 21.2861 65.3127 22.3113 64.0924 22.3113C62.8714 22.3113 62.5249 21.2703 62.5249 19.6743C62.5249 18.0783 62.8707 17.1806 64.0917 17.1806ZM70.0159 21.8531L70.1644 24.3123L75.1549 24.3086C78.5074 24.3086 79.9632 23.3928 79.9632 21.4698C79.9632 20.4063 79.1794 19.8393 78.3619 19.5093C79.0339 19.1043 79.6167 18.5178 79.6167 17.6763C79.6167 16.0803 78.6717 15.1451 75.0439 15.1451H70.2544L70.0894 17.6013L70.9639 17.7288V21.7248L70.0159 21.8531ZM75.6664 18.8853C76.0369 18.8336 76.3114 18.5111 76.3047 18.1346C76.3047 17.6388 76.0317 17.3988 75.0282 17.3988H74.2632V18.8853H75.6664ZM74.2632 20.5533V22.0556H75.1399C76.2484 22.0556 76.5432 21.7811 76.5432 21.2328C76.5432 20.7716 76.3047 20.5533 75.3567 20.5533H74.2632ZM81.7152 21.7248L80.7672 21.8523L80.9134 24.3086H85.9039C89.1634 24.3086 90.8209 23.0808 90.8209 20.8083C90.8209 18.6266 88.8717 17.8413 85.9197 17.8413H85.1914V15.1451H81.0184L80.8572 17.6013L81.7152 17.7288V21.7248ZM91.9737 24.3123V17.2368L91.4254 17.1056L91.5709 15.1451H96.1287V17.6013L95.4162 17.7108V21.8906L96.3822 22.0031L96.2187 24.3086L91.9737 24.3123ZM85.1757 20.0576V22.0368H85.8327C86.6877 22.0368 87.2359 21.7623 87.2359 20.9021C87.2359 20.1138 86.5977 20.0576 85.8514 20.0576H85.1757ZM104.286 10.9653V11.1116C104.286 11.3516 104.196 11.9943 103.248 11.9943C102.084 11.9943 102.21 11.0216 102.21 11.0216V10.9653L99.1872 11.3861C99.1872 11.3861 99.3139 14.1386 103.248 14.1386C107.183 14.1386 107.313 11.3861 107.313 11.3861L104.286 10.9661V10.9653ZM98.1117 17.7288V24.3116L100.646 24.3086L100.683 24.2186L104.342 19.4898V21.8711L103.539 22.1831V24.3086H108.605L108.769 22.0023L107.802 21.8898V17.7288L108.679 17.6013V15.1451H104.634L104.615 15.2013L101.572 19.1598V15.1451H97.3992L97.2349 17.6013L98.1117 17.7288Z" fill="#535861"/>
<path d="M38.7256 35.221C38.9678 35.317 39.2281 35.3605 39.4876 35.3485C40.8008 35.3485 41.6558 34.3233 41.8388 28.9158L40.1258 28.7508L40.2901 26.2758H51.6781V28.732L50.4766 28.8595V35.623L51.8243 35.7168L51.6781 38.1918H45.6968L45.5326 35.7355L46.8428 35.608V28.9465H45.0773C45.0398 36.094 43.0171 38.587 40.2503 38.587C39.0826 38.587 38.5898 38.185 38.5898 38.185L38.7263 35.221H38.7256Z" fill="#535861"/>
<path fill-rule="evenodd" clip-rule="evenodd" d="M58.0659 36.0751C57.0459 36.0751 56.4271 35.7474 56.1909 34.7191H61.3996C61.7071 34.1259 61.8631 33.4651 61.8549 32.7961C61.8549 30.1749 60.3429 28.6351 57.4831 28.6351C54.7884 28.6351 52.6194 30.1936 52.6194 33.5656C52.6194 36.9384 54.6241 38.5869 57.9016 38.5869C60.4891 38.5869 61.6561 36.8821 61.6561 36.8821L60.1074 35.1774C59.5575 35.7132 58.8324 36.032 58.0659 36.0751ZM58.6854 32.4654H56.1174C56.2449 31.4934 56.6281 31.0351 57.5019 31.0351C58.4499 31.0351 58.7041 31.5864 58.7041 32.0979C58.7041 32.2254 58.6854 32.4654 58.6854 32.4654Z" fill="#535861"/>
<path d="M68.3237 32.9803L68.1594 31.4218C67.9097 31.1819 67.5756 31.0499 67.2294 31.0543C66.4644 31.0543 65.9567 31.4743 65.9567 33.3643C65.9567 35.3053 66.6662 36.1318 67.8684 36.1318C68.9619 36.1318 69.9287 34.9783 69.9287 34.9783L71.4032 36.6268C71.4032 36.6268 70.4027 38.5873 67.5054 38.5873C63.9339 38.5873 62.3477 36.4798 62.3477 33.4198C62.3477 30.5398 64.1162 28.6348 66.7217 28.6348C67.3723 28.6694 67.9988 28.8927 68.5247 29.2775L68.8352 28.8193H70.9449L70.9074 32.9803H68.3237ZM77.7077 32.9803L77.5434 31.4218C77.2935 31.1827 76.96 31.0508 76.6142 31.0543C75.8484 31.0543 75.3377 31.4743 75.3377 33.3643C75.3377 35.3053 76.0502 36.1318 77.2524 36.1318C78.3459 36.1318 79.3089 34.9783 79.3089 34.9783L80.7872 36.6268C80.7872 36.6268 79.7829 38.5873 76.8864 38.5873C73.3179 38.5873 71.7317 36.4798 71.7317 33.4198C71.7317 30.5398 73.4972 28.6348 76.1027 28.6348C76.7544 28.6687 77.382 28.8921 77.9087 29.2775L78.2184 28.8193H80.3132L80.2757 32.9803H77.7077ZM81.4982 38.1853L81.3527 35.729L82.3007 35.6015V31.6025L81.4269 31.475L81.5912 29.0188H85.7612V32.282H88.3509V31.1105L87.8027 30.98V29.018H92.5022V31.4743L91.7927 31.6018V35.7628L92.7594 35.8753L92.5952 38.1853H88.3509V34.6843H85.7612V36.0935L86.4174 36.206L86.2539 38.1845L81.4982 38.1853Z" fill="#535861"/>
<path fill-rule="evenodd" clip-rule="evenodd" d="M98.9699 36.0755C97.9507 36.0755 97.3312 35.7478 97.0927 34.7195H102.304C102.611 34.1255 102.767 33.4651 102.759 32.7965C102.759 30.1753 101.247 28.6355 98.3872 28.6355C95.6924 28.6355 93.5234 30.194 93.5234 33.566C93.5234 36.9388 95.5282 38.5873 98.8057 38.5873C101.392 38.5873 102.56 36.8825 102.56 36.8825L101.011 35.1778C100.462 35.7135 99.7365 36.0324 98.9699 36.0755ZM99.5894 32.4658H97.0214C97.1482 31.4938 97.5322 31.0355 98.4059 31.0355C99.3539 31.0355 99.6082 31.5868 99.6082 32.0983C99.6082 32.2258 99.5894 32.4658 99.5894 32.4658ZM103.288 40.3115L103.453 42.767H108.499L108.664 40.457L107.697 40.3483V38.0735H107.805C107.805 38.0735 108.571 38.5873 110.284 38.5873C112.799 38.5873 114.457 36.2398 114.457 33.2548C114.457 30.5248 112.963 28.6348 110.392 28.6348C108.462 28.6348 107.551 29.3863 107.551 29.3863H107.424L107.26 29.0188H103.542L103.378 31.475L104.255 31.6055V40.1833L103.288 40.3115ZM107.697 35.5078V31.8988C107.871 31.6801 108.093 31.5037 108.345 31.3828C108.597 31.2619 108.873 31.1995 109.153 31.2005C110.448 31.2005 110.866 31.5125 110.866 33.3455C110.866 35.1778 110.374 36.0598 109.081 36.0598C108.825 36.0686 108.57 36.0242 108.331 35.9291C108.093 35.8341 107.877 35.6906 107.697 35.5078Z" fill="#535861"/>
<path d="M52.2325 47.1805V46.348L51.8178 45.8995L50.9403 47.1805H50.1228L51.3558 45.4038L50.1663 44.0448H50.9808L52.2325 45.5095V44.0448H52.9143V45.5095L54.1631 44.0448H54.9776L53.7911 45.4038L55.024 47.1805H54.2028L53.3238 45.8995L52.9151 46.348V47.1805H52.2333H52.2325ZM58.5663 47.1805H57.8868V45.1263L56.5271 47.1805H55.8798V44.0455H56.5578V46.102L57.9273 44.0448H58.5655V47.1798L58.5663 47.1805ZM62.4003 44.0448V47.1805H61.7163V44.668H60.8178V44.905C60.8178 46.75 60.508 47.221 59.8046 47.221C59.6835 47.2198 59.5629 47.2062 59.4446 47.1805L59.4888 46.6135C59.5248 46.615 59.5608 46.615 59.5968 46.6135C59.9658 46.6135 60.1766 46.3735 60.1766 44.6868V44.0358L62.4003 44.0448Z" fill="#535861"/>
<path fill-rule="evenodd" clip-rule="evenodd" d="M64.45 44.0389C64.147 44.173 63.8909 44.3942 63.7141 44.6745C63.5374 44.9547 63.4482 45.2812 63.4577 45.6124C63.4577 46.0496 63.6332 46.4681 63.9437 46.7734C64.255 47.0786 64.675 47.2444 65.1092 47.2339C65.44 47.2345 65.7634 47.1361 66.0378 46.9514C66.3122 46.7667 66.525 46.5041 66.649 46.1974C66.904 45.5689 66.7555 44.8474 66.2725 44.3726C66.037 44.141 65.7374 43.9853 65.4125 43.9258C65.0876 43.8663 64.7523 43.9057 64.45 44.0389ZM65.791 44.9239C65.9657 45.1091 66.0587 45.3574 66.0497 45.6131H66.0647C66.079 45.8696 65.9867 46.1201 65.8112 46.3069C65.6357 46.4929 65.3912 46.5979 65.1362 46.5979C65.0092 46.5974 64.8835 46.5714 64.7668 46.5212C64.65 46.4711 64.5446 46.3979 64.4567 46.3061C64.3686 46.2141 64.2997 46.1054 64.2541 45.9864C64.2085 45.8674 64.1871 45.7405 64.1912 45.6131C64.1843 45.4864 64.2032 45.3595 64.2468 45.2402C64.2904 45.121 64.3577 45.0118 64.4447 44.9194C64.621 44.7326 64.8647 44.6269 65.1197 44.6276C65.3747 44.6321 65.6162 44.7386 65.791 44.9239ZM68.8262 43.0571L68.4295 43.1284C68.4722 43.5124 68.794 43.8019 69.178 43.8019C69.5605 43.8019 69.883 43.5124 69.9257 43.1284L69.5297 43.0571C69.5154 43.14 69.4722 43.2151 69.4078 43.2693C69.3435 43.3234 69.2621 43.3531 69.178 43.3531C69.0939 43.3531 69.0125 43.3234 68.9481 43.2693C68.8838 43.2151 68.8406 43.14 68.8262 43.0571ZM69.8327 47.1806H70.5077V44.0456H69.8732L68.5007 46.1021V44.0449H67.8257V47.1799H68.47L69.8327 45.1264V47.1806Z" fill="#535861"/>
<path d="M73.4822 44.0449H74.1699V45.4167L75.4307 44.0449H76.2609L74.9904 45.3762L76.3164 47.1807H75.4959L74.5284 45.8464L74.1699 46.2237V47.1807H73.4822V44.0449Z" fill="#535861"/>
<path fill-rule="evenodd" clip-rule="evenodd" d="M77.8106 44.0385C77.5077 44.1725 77.2515 44.3938 77.0749 44.6741C76.8983 44.9544 76.8093 45.2809 76.8191 45.612H76.8311C76.8311 46.047 77.0043 46.464 77.3126 46.7685C77.6208 47.073 78.0378 47.241 78.4698 47.2335C78.8006 47.2341 79.124 47.1357 79.3984 46.951C79.6728 46.7663 79.8857 46.5037 80.0096 46.197C80.2653 45.5685 80.1161 44.847 79.6331 44.3723C79.3976 44.1406 79.098 43.9849 78.7731 43.9254C78.4482 43.8659 78.1129 43.9053 77.8106 44.0385ZM79.1531 44.9235C79.3278 45.1088 79.4208 45.357 79.4118 45.612C79.412 45.8085 79.3534 46.0006 79.2436 46.1635C79.1337 46.3264 78.9776 46.4528 78.7953 46.5263C78.6135 46.5991 78.4139 46.6154 78.2225 46.5732C78.0312 46.5309 77.8571 46.432 77.7228 46.2893C77.5881 46.146 77.4991 45.9658 77.4671 45.7717C77.4352 45.5776 77.4618 45.3784 77.5436 45.1995C77.7108 44.8335 78.0828 44.607 78.4826 44.6273C78.7361 44.6318 78.9783 44.7383 79.1531 44.9235Z" fill="#535861"/>
<path d="M81.1845 44.0444H81.9248L82.743 45.3719L83.5635 44.0444H84.3015V47.1794H83.6198V45.1356L82.743 46.4729H82.7243L81.8565 45.1476V47.1801H81.1845V44.0444ZM85.494 44.0444H88.0965V47.1794H87.4088V44.6676H86.1818V47.1801H85.494V44.0444ZM91.9275 44.0444V47.1801H91.2428V44.6676H90.3413V44.9046C90.3413 46.7496 90.0315 47.2206 89.331 47.2206C89.2102 47.2195 89.0898 47.206 88.9718 47.1801L89.0153 46.6131C89.0513 46.6154 89.0873 46.6154 89.1233 46.6131C89.4923 46.6131 89.703 46.3731 89.703 44.6864V44.0354L91.9275 44.0444ZM93.12 44.0444H95.4713V44.6586H93.8018V45.2946H95.2703V45.9081H93.8018V46.5659H95.493V47.1801H93.12V44.0444ZM96.5505 44.0444H97.2353V45.4161L98.4998 44.0444H99.3263L98.0595 45.3756L99.3855 47.1801H98.5613L97.5945 45.8459L97.2353 46.2231V47.1801H96.5505V44.0444ZM99.882 45.6126C99.8745 45.1776 100.044 44.7584 100.351 44.4524C100.658 44.1464 101.076 43.9799 101.509 43.9919C101.965 43.9769 102.405 44.1644 102.714 44.5026L102.305 44.9766C102.202 44.8659 102.078 44.7777 101.94 44.7177C101.802 44.6576 101.653 44.6271 101.502 44.6279C101.255 44.6484 101.025 44.7612 100.858 44.9436C100.69 45.1261 100.598 45.365 100.598 45.6126C100.598 46.1279 100.992 46.5569 101.502 46.5974C101.814 46.5944 102.111 46.4624 102.323 46.2329L102.757 46.7001C102.533 46.9422 102.243 47.1121 101.922 47.1878C101.602 47.2636 101.266 47.2419 100.958 47.1254C100.649 47.0079 100.382 46.8014 100.19 46.5322C99.9988 46.2629 99.8916 45.9429 99.882 45.6126ZM9.51001 11.4861H10.7055V14.4036H9.51001V11.4861ZM22.764 11.3639H23.9595V14.4029H22.764V11.3639Z" fill="#535861"/>
<path d="M12.7995 8.41489C12.7686 9.02889 12.5303 9.61423 12.1235 10.0751C11.7166 10.5361 11.1654 10.8452 10.56 10.9521C9.95531 11.0566 9.33306 10.952 8.79569 10.6556C8.25832 10.3593 7.83787 9.88881 7.60353 9.32164C7.36685 8.75351 7.32902 8.12208 7.4962 7.52976C7.66337 6.93743 8.02574 6.41895 8.52453 6.05839C9.02193 5.69983 9.62682 5.52178 10.2392 5.55369C10.8515 5.58561 11.4346 5.82557 11.892 6.23389C11.8547 5.99339 11.8347 5.75051 11.832 5.50714C11.8335 5.27164 11.8523 5.03614 11.8883 4.80289C11.1816 4.43546 10.3786 4.29559 9.58938 4.40247C8.80013 4.50935 8.06325 4.85775 7.47978 5.39989C6.89382 5.94446 6.48856 6.6553 6.31842 7.43693C6.14829 8.21857 6.22143 9.03355 6.52803 9.77239C6.8319 10.5097 7.35573 11.1355 8.02814 11.5643C8.70054 11.9931 9.48882 12.2041 10.2855 12.1686C11.0822 12.1305 11.8478 11.8479 12.4782 11.3593C13.1086 10.8707 13.5733 10.1998 13.809 9.43789C13.4237 9.14904 13.0835 8.80377 12.7995 8.41489ZM23.3618 4.34239C22.712 4.3413 22.0725 4.50517 21.5033 4.81864C21.5355 5.03839 21.552 5.26114 21.5528 5.48239C21.5511 5.75711 21.5273 6.03125 21.4815 6.30214C21.9247 5.86649 22.5053 5.59802 23.1243 5.54249C23.7433 5.48697 24.3624 5.64782 24.876 5.99764C25.3911 6.34946 25.7698 6.86739 25.9489 7.46489C26.128 8.06239 26.0967 8.70325 25.86 9.28039C25.6259 9.85654 25.1997 10.334 24.6538 10.6319C24.1079 10.9297 23.4757 11.0296 22.8645 10.9146C22.2529 10.7968 21.7005 10.472 21.3003 9.99471C20.9001 9.51746 20.6765 8.91693 20.667 8.29414C20.3805 8.69535 20.0357 9.05153 19.644 9.35089C20.214 11.2791 22.1468 12.4566 24.1095 12.0711C26.0723 11.6856 27.4223 9.86239 27.2295 7.86064C27.0353 5.85814 25.362 4.33114 23.3618 4.33264V4.34239Z" fill="#535861"/>
<path fill-rule="evenodd" clip-rule="evenodd" d="M11.2444 5.48262C11.2444 8.51037 13.6841 10.9651 16.6939 10.9651C19.7014 10.9599 22.1389 8.50887 22.1434 5.48262C22.1434 2.45487 19.7036 0.00012207 16.6939 0.00012207C13.6841 0.00012207 11.2444 2.45487 11.2444 5.48262ZM12.7451 3.84012C13.0662 3.05618 13.6132 2.38541 14.3164 1.91306C15.0197 1.44071 15.8475 1.18811 16.6946 1.18737C19.0511 1.19112 20.9606 3.11187 20.9636 5.48262C20.9656 6.33112 20.7164 7.16121 20.2474 7.86831C19.7784 8.57542 19.1106 9.12789 18.3281 9.45612C17.5473 9.78181 16.687 9.86722 15.8574 9.70142C15.0277 9.53562 14.2664 9.12616 13.6706 8.52537C13.0723 7.92206 12.6654 7.1556 12.5008 6.32203C12.3361 5.48846 12.4211 4.62559 12.7451 3.84012Z" fill="#535861"/>
<path d="M18.4972 5.06482L16.7497 6.76357L15.0614 5.06482L14.2252 5.92507L16.1024 7.79557V14.7053H17.2949V7.94257L19.3462 5.92957L18.4972 5.06557V5.06482ZM27.4769 47.7571C24.6884 47.7571 22.9072 45.8866 22.0897 44.7338C21.2752 45.8738 19.5059 47.7571 16.7144 47.7571C13.9229 47.7571 12.1109 45.8648 11.2837 44.7271C10.4692 45.8686 8.69993 47.7571 5.89868 47.7571C1.97693 47.7571 0.0749277 44.0483 0.0134277 43.8893L1.06643 43.3561L0.524178 43.6366L1.05068 43.3718C1.06643 43.4026 2.71493 46.5848 5.89943 46.5848C9.08393 46.5848 10.7324 43.4026 10.7504 43.3718L11.2679 42.3428L11.7982 43.3651C11.8162 43.3966 13.5202 46.5848 16.7144 46.5848C19.9087 46.5848 21.5474 43.4026 21.5632 43.3718L22.0897 42.3278L22.6162 43.3688C22.6162 43.3996 24.2887 46.5848 27.4769 46.5848C30.6644 46.5848 32.3099 43.4026 32.3257 43.3718L33.3787 43.9043C33.3014 44.0483 31.3987 47.7571 27.4769 47.7571Z" fill="#535861"/>
<path fill-rule="evenodd" clip-rule="evenodd" d="M4.40063 35.7819V13.7454H29.2534V35.7826L16.7929 42.3271L4.40063 35.7819ZM16.7741 40.9749L28.0631 35.0521V15.0856H5.48513V35.0521L16.7741 40.9749Z" fill="#535861"/>
<path fill-rule="evenodd" clip-rule="evenodd" d="M16.7771 16.3052H6.69336V34.3142L11.1019 36.6294L11.9194 37.0599L16.7711 39.6062L26.8489 34.3074V16.3052H16.7771ZM14.1604 29.4827C14.4129 29.7368 14.5848 30.0599 14.6545 30.4114C14.7242 30.7628 14.6886 31.127 14.5521 31.4583C14.4156 31.7896 14.1843 32.0732 13.8873 32.2736C13.5902 32.474 13.2407 32.5822 12.8824 32.5847C12.6447 32.5846 12.4094 32.5374 12.19 32.4459C11.9707 32.3543 11.7716 32.2203 11.6044 32.0514L10.3039 30.7419C10.0514 30.4868 9.87975 30.1629 9.81039 29.8107C9.74102 29.4586 9.77701 29.0937 9.91386 28.7619C10.0496 28.4307 10.2807 28.1473 10.5778 27.9476C10.8749 27.748 11.2247 27.6412 11.5826 27.6407C11.8199 27.6398 12.0551 27.6862 12.2743 27.7772C12.4935 27.8683 12.6923 28.0021 12.8591 28.1709L13.2251 28.5414L15.2261 26.5284L15.9386 27.2484L13.9406 29.2584L14.1604 29.4827ZM21.7744 32.0387L23.0756 30.7292V30.7419C23.4133 30.3999 23.6026 29.9386 23.6026 29.4579C23.6026 28.9773 23.4133 28.516 23.0756 28.1739C22.9083 28.0052 22.7092 27.8713 22.4898 27.7799C22.2705 27.6885 22.0352 27.6415 21.7976 27.6415C21.56 27.6415 21.3247 27.6885 21.1054 27.7799C20.886 27.8713 20.6869 28.0052 20.5196 28.1739L20.1544 28.5414L17.4034 25.7739L19.9774 23.1834L21.5269 24.7419L22.2424 24.0219L20.6929 22.4634L21.3349 21.8184L22.8679 23.3769L23.5714 22.6569L21.3221 20.3972L16.6751 25.0727L12.0281 20.3972L9.77886 22.6569L10.4944 23.3769L12.0439 21.8184L12.7001 22.4417L11.1514 24.0002L11.8669 24.7427L13.4006 23.1834L19.4261 29.2584L19.2064 29.4834C18.9833 29.7109 18.8238 29.9928 18.7435 30.3011C18.6632 30.6094 18.6651 30.9333 18.7489 31.2407C18.9184 31.8669 19.4081 32.3537 20.0321 32.5187C20.339 32.5995 20.6619 32.5977 20.9679 32.5134C21.2739 32.4291 21.5521 32.2653 21.7744 32.0387Z" fill="#535861"/>
<path d="M32.328 36.8632C32.328 36.8947 30.6825 40.0799 27.4793 40.0799C25.311 40.0799 23.8418 38.5964 23.142 37.6454L16.788 40.9807L10.2945 37.5772C9.60075 38.5124 8.12625 40.0709 5.90175 40.0709C2.72325 40.0709 1.07775 36.9037 1.053 36.8534L0 37.4024C0.07725 37.5614 1.98 41.2709 5.90175 41.2709C8.69025 41.2709 10.4715 39.3817 11.2868 38.2409C12.1133 39.3787 13.9163 41.2709 16.7168 41.2709C19.5173 41.2709 21.2768 39.4004 22.092 38.2469C22.9095 39.3877 24.6848 41.2709 27.4793 41.2709C31.4018 41.2709 33.3038 37.5614 33.366 37.4024L32.328 36.8632ZM21.798 28.6567C21.588 28.6567 21.3855 28.7407 21.2378 28.8907L19.9365 30.1994C19.7862 30.35 19.7018 30.5541 19.7018 30.7668C19.7018 30.9796 19.7862 31.1836 19.9365 31.3342C20.2515 31.6357 20.7465 31.6357 21.0608 31.3342L22.362 30.0247C22.5908 29.7959 22.659 29.4509 22.5353 29.1509C22.4115 28.8509 22.1205 28.6559 21.798 28.6567ZM12.1485 28.8899C12.0498 28.79 11.9263 28.718 11.7907 28.6813C11.6551 28.6447 11.5121 28.6446 11.3765 28.6812C11.2409 28.7178 11.1173 28.7898 11.0186 28.8897C10.9198 28.9896 10.8493 29.1139 10.8143 29.2499C10.7408 29.5267 10.8195 29.8222 11.0205 30.0247L12.3218 31.3334C12.4734 31.479 12.6755 31.5603 12.8858 31.5603C13.096 31.5603 13.2981 31.479 13.4498 31.3334C13.5987 31.1823 13.6822 30.9786 13.6822 30.7664C13.6822 30.5542 13.5987 30.3506 13.4498 30.1994L12.1485 28.8899Z" fill="#535861"/>
</g>
<defs>
<clipPath id="clip0_2_783">
<rect width="114.75" height="48" fill="white"/>
</clipPath>
</defs>
</svg>
