<svg width="77" height="32" viewBox="0 0 77 32" fill="none" xmlns="http://www.w3.org/2000/svg">
<g clip-path="url(#clip0_2_558)">
<path d="M29.6229 16.2085L29.5134 14.5685L30.3894 14.4835V9.88953L29.5134 9.79153L29.6234 8.26453H33.6069V9.90203L32.8059 9.98703V11.344H35.4534V9.98703L34.5674 9.90203L34.6769 8.26453H38.6589V9.90203L37.8699 9.98703V14.5935L38.7684 14.6665L38.6589 16.2085H34.6769L34.5674 14.5685L35.4534 14.4835V13.0785H32.8059V14.496L33.7164 14.5585L33.6069 16.2085H29.6229Z" fill="#535861"/>
<path fill-rule="evenodd" clip-rule="evenodd" d="M42.7289 9.8413C40.5169 9.8413 39.2924 11.0383 39.2924 13.0913C39.2924 15.1313 40.5174 16.4763 42.7289 16.4763C44.8149 16.4763 46.1784 15.1443 46.1784 13.0913C46.1784 11.0383 44.9409 9.8413 42.7289 9.8413ZM42.7259 11.4538C43.5399 11.4538 43.7814 12.0523 43.7814 13.1163C43.7814 14.1908 43.5399 14.8743 42.7264 14.8743C41.9124 14.8743 41.6814 14.1803 41.6814 13.1163C41.6814 12.0523 41.9119 11.4538 42.7259 11.4538ZM46.6754 14.5688L46.7744 16.2083L50.1014 16.2058C52.3364 16.2058 53.3069 15.5953 53.3069 14.3133C53.3069 13.6043 52.7844 13.2263 52.2394 13.0063C52.6874 12.7363 53.0759 12.3453 53.0759 11.7843C53.0759 10.7203 52.4459 10.0968 50.0274 10.0968H46.8344L46.7244 11.7343L47.3074 11.8193V14.4833L46.6754 14.5688ZM50.4424 12.5903C50.6894 12.5558 50.8724 12.3408 50.8679 12.0898C50.8679 11.7593 50.6859 11.5993 50.0169 11.5993H49.5069V12.5903H50.4424ZM49.5069 13.7023V14.7038H50.0914C50.8304 14.7038 51.0269 14.5208 51.0269 14.1553C51.0269 13.8478 50.8679 13.7023 50.2359 13.7023H49.5069ZM54.4749 14.4833L53.8429 14.5683L53.9404 16.2058H57.2674C59.4404 16.2058 60.5454 15.3873 60.5454 13.8723C60.5454 12.4178 59.2459 11.8943 57.2779 11.8943H56.7924V10.0968H54.0104L53.9029 11.7343L54.4749 11.8193V14.4833ZM61.3139 16.2083V11.4913L60.9484 11.4038L61.0454 10.0968H64.0839V11.7343L63.6089 11.8073V14.5938L64.2529 14.6688L64.1439 16.2058L61.3139 16.2083ZM56.7819 13.3718V14.6913H57.2199C57.7899 14.6913 58.1554 14.5083 58.1554 13.9348C58.1554 13.4093 57.7299 13.3718 57.2324 13.3718H56.7819ZM69.5224 7.3103V7.4078C69.5224 7.5678 69.4624 7.9963 68.8304 7.9963C68.0539 7.9963 68.1384 7.3478 68.1384 7.3478V7.3103L66.1229 7.5908C66.1229 7.5908 66.2074 9.4258 68.8304 9.4258C71.4534 9.4258 71.5404 7.5908 71.5404 7.5908L69.5224 7.3108V7.3103ZM65.4059 11.8193V16.2078L67.0954 16.2058L67.1204 16.1458L69.5594 12.9933V14.5808L69.0244 14.7888V16.2058H72.4014L72.5109 14.6683L71.8664 14.5933V11.8193L72.4509 11.7343V10.0968H69.7539L69.7414 10.1343L67.7129 12.7733V10.0968H64.9309L64.8214 11.7343L65.4059 11.8193Z" fill="#535861"/>
<path d="M25.816 23.4808C25.9775 23.5448 26.151 23.5738 26.324 23.5658C27.1995 23.5658 27.7695 22.8823 27.8915 19.2773L26.7495 19.1673L26.859 17.5173H34.451V19.1548L33.65 19.2398V23.7488L34.5485 23.8113L34.451 25.4613H30.4635L30.354 23.8238L31.2275 23.7388V19.2978H30.0505C30.0255 24.0628 28.677 25.7248 26.8325 25.7248C26.054 25.7248 25.7255 25.4568 25.7255 25.4568L25.8165 23.4808H25.816Z" fill="#535861"/>
<path fill-rule="evenodd" clip-rule="evenodd" d="M38.7136 24.0505C38.0336 24.0505 37.6211 23.832 37.4636 23.1465H40.9361C41.1411 22.751 41.2451 22.3105 41.2396 21.8645C41.2396 20.117 40.2316 19.0905 38.3251 19.0905C36.5286 19.0905 35.0826 20.1295 35.0826 22.3775C35.0826 24.626 36.4191 25.725 38.6041 25.725C40.3291 25.725 41.1071 24.5885 41.1071 24.5885L40.0746 23.452C39.708 23.8091 39.2247 24.0217 38.7136 24.0505ZM39.1266 21.644H37.4146C37.4996 20.996 37.7551 20.6905 38.3376 20.6905C38.9696 20.6905 39.1391 21.058 39.1391 21.399C39.1391 21.484 39.1266 21.644 39.1266 21.644Z" fill="#535861"/>
<path d="M45.5489 21.9871L45.4394 20.9481C45.273 20.7882 45.0503 20.7002 44.8194 20.7031C44.3094 20.7031 43.9709 20.9831 43.9709 22.2431C43.9709 23.5371 44.4439 24.0881 45.2454 24.0881C45.9744 24.0881 46.6189 23.3191 46.6189 23.3191L47.6019 24.4181C47.6019 24.4181 46.9349 25.7251 45.0034 25.7251C42.6224 25.7251 41.5649 24.3201 41.5649 22.2801C41.5649 20.3601 42.7439 19.0901 44.4809 19.0901C44.9147 19.1132 45.3324 19.2621 45.6829 19.5186L45.8899 19.2131H47.2964L47.2714 21.9871H45.5489ZM51.8049 21.9871L51.6954 20.9481C51.5288 20.7887 51.3065 20.7008 51.0759 20.7031C50.5654 20.7031 50.2249 20.9831 50.2249 22.2431C50.2249 23.5371 50.6999 24.0881 51.5014 24.0881C52.2304 24.0881 52.8724 23.3191 52.8724 23.3191L53.8579 24.4181C53.8579 24.4181 53.1884 25.7251 51.2574 25.7251C48.8784 25.7251 47.8209 24.3201 47.8209 22.2801C47.8209 20.3601 48.9979 19.0901 50.7349 19.0901C51.1694 19.1127 51.5879 19.2616 51.9389 19.5186L52.1454 19.2131H53.5419L53.5169 21.9871H51.8049ZM54.3319 25.4571L54.2349 23.8196L54.8669 23.7346V21.0686L54.2844 20.9836L54.3939 19.3461H57.1739V21.5216H58.9004V20.7406L58.5349 20.6536V19.3456H61.6679V20.9831L61.1949 21.0681V23.8421L61.8394 23.9171L61.7299 25.4571H58.9004V23.1231H57.1739V24.0626L57.6114 24.1376L57.5024 25.4566L54.3319 25.4571Z" fill="#535861"/>
<path fill-rule="evenodd" clip-rule="evenodd" d="M65.9793 24.051C65.2998 24.051 64.8868 23.8325 64.7278 23.147H68.2018C68.4065 22.7509 68.5107 22.3107 68.5053 21.865C68.5053 20.1175 67.4973 19.091 65.5908 19.091C63.7943 19.091 62.3483 20.13 62.3483 22.378C62.3483 24.6265 63.6848 25.7255 65.8698 25.7255C67.5943 25.7255 68.3728 24.589 68.3728 24.589L67.3403 23.4525C66.9737 23.8096 66.4903 24.0222 65.9793 24.051ZM66.3923 21.6445H64.6803C64.7648 20.9965 65.0208 20.691 65.6033 20.691C66.2353 20.691 66.4048 21.0585 66.4048 21.3995C66.4048 21.4845 66.3923 21.6445 66.3923 21.6445ZM68.8583 26.875L68.9678 28.512H72.3323L72.4418 26.972L71.7973 26.8995V25.383H71.8693C71.8693 25.383 72.3798 25.7255 73.5218 25.7255C75.1988 25.7255 76.3038 24.1605 76.3038 22.1705C76.3038 20.3505 75.3083 19.0905 73.5938 19.0905C72.3073 19.0905 71.7003 19.5915 71.7003 19.5915H71.6153L71.5058 19.3465H69.0273L68.9183 20.984L69.5028 21.071V26.7895L68.8583 26.875ZM71.7973 23.6725V21.2665C71.9134 21.1207 72.0611 21.0031 72.2292 20.9225C72.3972 20.8418 72.5814 20.8003 72.7678 20.801C73.6313 20.801 73.9098 21.009 73.9098 22.231C73.9098 23.4525 73.5818 24.0405 72.7203 24.0405C72.5493 24.0464 72.379 24.0167 72.2201 23.9534C72.0612 23.89 71.9172 23.7944 71.7973 23.6725Z" fill="#535861"/>
<path d="M34.8195 31.4542V30.8992L34.543 30.6002L33.958 31.4542H33.413L34.235 30.2697L33.442 29.3637H33.985L34.8195 30.3402V29.3637H35.274V30.3402L36.1065 29.3637H36.6495L35.8585 30.2697L36.6805 31.4542H36.133L35.547 30.6002L35.2745 30.8992V31.4542H34.82H34.8195ZM39.042 31.4542H38.589V30.0847L37.6825 31.4542H37.251V29.3642H37.703V30.7352L38.616 29.3637H39.0415V31.4537L39.042 31.4542ZM41.598 29.3637V31.4542H41.142V29.7792H40.543V29.9372C40.543 31.1672 40.3365 31.4812 39.8675 31.4812C39.7868 31.4803 39.7063 31.4713 39.6275 31.4542L39.657 31.0762C39.681 31.0772 39.705 31.0772 39.729 31.0762C39.975 31.0762 40.1155 30.9162 40.1155 29.7917V29.3577L41.598 29.3637Z" fill="#535861"/>
<path fill-rule="evenodd" clip-rule="evenodd" d="M42.9677 29.3587C42.7658 29.4481 42.595 29.5956 42.4772 29.7824C42.3594 29.9693 42.2999 30.1869 42.3063 30.4077C42.3063 30.6992 42.4233 30.9782 42.6303 31.1817C42.8378 31.3852 43.1177 31.4957 43.4072 31.4887C43.6278 31.4891 43.8434 31.4235 44.0263 31.3004C44.2092 31.1772 44.3511 31.0022 44.4337 30.7977C44.6037 30.3787 44.5048 29.8977 44.1827 29.5812C44.0258 29.4268 43.826 29.323 43.6094 29.2833C43.3928 29.2437 43.1693 29.2699 42.9677 29.3587ZM43.8618 29.9487C43.9783 30.0722 44.0403 30.2377 44.0343 30.4082H44.0442C44.0537 30.5792 43.9923 30.7462 43.8753 30.8707C43.7583 30.9947 43.5953 31.0647 43.4253 31.0647C43.3405 31.0644 43.2568 31.047 43.1789 31.0136C43.1011 30.9802 43.0308 30.9314 42.9723 30.8702C42.9135 30.8089 42.8675 30.7364 42.8371 30.6571C42.8068 30.5777 42.7925 30.4931 42.7952 30.4082C42.7906 30.3237 42.8032 30.2391 42.8323 30.1596C42.8613 30.0801 42.9062 30.0074 42.9643 29.9457C43.0818 29.8212 43.2442 29.7507 43.4142 29.7512C43.5842 29.7542 43.7453 29.8252 43.8618 29.9487ZM45.8852 28.7042L45.6207 28.7517C45.6492 29.0077 45.8638 29.2007 46.1198 29.2007C46.3748 29.2007 46.5898 29.0077 46.6183 28.7517L46.3543 28.7042C46.3447 28.7595 46.3159 28.8096 46.273 28.8457C46.2301 28.8818 46.1758 28.9016 46.1198 28.9016C46.0637 28.9016 46.0094 28.8818 45.9665 28.8457C45.9236 28.8096 45.8948 28.7595 45.8852 28.7042ZM46.5563 31.4532H47.0063V29.3632H46.5833L45.6683 30.7342V29.3627H45.2182V31.4527H45.6478L46.5563 30.0837V31.4532Z" fill="#535861"/>
<path d="M48.9889 29.3627H49.4474V30.2772L50.2879 29.3627H50.8414L49.9944 30.2502L50.8784 31.4532H50.3314L49.6864 30.5637L49.4474 30.8152V31.4532H48.9889V29.3627Z" fill="#535861"/>
<path fill-rule="evenodd" clip-rule="evenodd" d="M51.8757 29.359C51.6738 29.4484 51.503 29.5959 51.3853 29.7827C51.2675 29.9696 51.2082 30.1873 51.2147 30.408H51.2227C51.2227 30.698 51.3382 30.976 51.5437 31.179C51.7492 31.382 52.0272 31.494 52.3152 31.489C52.5357 31.4894 52.7513 31.4238 52.9343 31.3007C53.1172 31.1775 53.2591 31.0025 53.3417 30.798C53.5122 30.379 53.4127 29.898 53.0907 29.5815C52.9337 29.4271 52.734 29.3233 52.5174 29.2836C52.3008 29.244 52.0772 29.2702 51.8757 29.359ZM52.7707 29.949C52.8872 30.0725 52.9492 30.238 52.9432 30.408C52.9433 30.539 52.9043 30.6671 52.831 30.7757C52.7578 30.8843 52.6537 30.9685 52.5322 31.0175C52.411 31.0661 52.2779 31.077 52.1504 31.0488C52.0228 31.0206 51.9067 30.9546 51.8172 30.8595C51.7274 30.764 51.668 30.6439 51.6468 30.5145C51.6255 30.3851 51.6432 30.2523 51.6977 30.133C51.8092 29.889 52.0572 29.738 52.3237 29.7515C52.4927 29.7545 52.6542 29.8255 52.7707 29.949Z" fill="#535861"/>
<path d="M54.1245 29.3629H54.618L55.1635 30.2479L55.7105 29.3629H56.2025V31.4529H55.748V30.0904L55.1635 30.9819H55.151L54.5725 30.0984V31.4534H54.1245V29.3629ZM56.9975 29.3629H58.7325V31.4529H58.274V29.7784H57.456V31.4534H56.9975V29.3629ZM61.2865 29.3629V31.4534H60.83V29.7784H60.229V29.9364C60.229 31.1664 60.0225 31.4804 59.5555 31.4804C59.4749 31.4797 59.3947 31.4706 59.316 31.4534L59.345 31.0754C59.369 31.0769 59.393 31.0769 59.417 31.0754C59.663 31.0754 59.8035 30.9154 59.8035 29.7909V29.3569L61.2865 29.3629ZM62.0815 29.3629H63.649V29.7724H62.536V30.1964H63.515V30.6054H62.536V31.0439H63.6635V31.4534H62.0815V29.3629ZM64.3685 29.3629H64.825V30.2774L65.668 29.3629H66.219L65.3745 30.2504L66.2585 31.4534H65.709L65.0645 30.5639L64.825 30.8154V31.4534H64.3685V29.3629ZM66.5895 30.4084C66.5845 30.1184 66.6975 29.8389 66.902 29.6349C67.107 29.4309 67.3855 29.3199 67.674 29.3279C67.978 29.3179 68.2715 29.4429 68.4775 29.6684L68.2045 29.9844C68.1364 29.9106 68.0536 29.8518 67.9615 29.8118C67.8694 29.7718 67.7699 29.7514 67.6695 29.7519C67.5049 29.7656 67.3516 29.8408 67.2399 29.9624C67.1283 30.0841 67.0665 30.2433 67.067 30.4084C67.067 30.7519 67.3295 31.0379 67.6695 31.0649C67.8775 31.0629 68.0755 30.9749 68.217 30.8219L68.506 31.1334C68.3571 31.2948 68.1633 31.408 67.9496 31.4586C67.7359 31.5091 67.5119 31.4946 67.3065 31.4169C67.1006 31.3386 66.9226 31.201 66.795 31.0214C66.6674 30.8419 66.5959 30.6286 66.5895 30.4084ZM6.34149 7.65743H7.13849V9.60243H6.34149V7.65743ZM15.1775 7.57593H15.9745V9.60193H15.1775V7.57593Z" fill="#535861"/>
<path d="M8.53451 5.60993C8.51392 6.01926 8.35502 6.40948 8.0838 6.71676C7.81258 7.02403 7.44511 7.23017 7.04151 7.30143C6.63836 7.37105 6.22352 7.30134 5.86528 7.10376C5.50703 6.90619 5.22673 6.59254 5.07051 6.21443C4.91272 5.83567 4.8875 5.41472 4.99895 5.01984C5.1104 4.62495 5.35198 4.2793 5.68451 4.03893C6.01611 3.79989 6.41937 3.68119 6.82759 3.70246C7.23582 3.72374 7.62455 3.88371 7.92951 4.15593C7.90462 3.99559 7.89125 3.83368 7.88951 3.67143C7.89051 3.51443 7.90301 3.35743 7.92701 3.20193C7.45591 2.95697 6.92058 2.86373 6.39441 2.93498C5.86824 3.00624 5.37698 3.2385 4.98801 3.59993C4.59737 3.96297 4.32719 4.43687 4.21377 4.95796C4.10034 5.47905 4.14911 6.02236 4.35351 6.51493C4.55608 7.00649 4.9053 7.42363 5.35358 7.70951C5.80185 7.99538 6.32736 8.13608 6.85851 8.11243C7.38962 8.08698 7.90002 7.89859 8.3203 7.57287C8.74058 7.24715 9.05035 6.7999 9.20751 6.29193C8.95065 6.09936 8.72384 5.86918 8.53451 5.60993ZM15.576 2.89493C15.1428 2.8942 14.7165 3.00345 14.337 3.21243C14.3585 3.35893 14.3695 3.50743 14.37 3.65493C14.3689 3.83808 14.353 4.02084 14.3225 4.20143C14.618 3.91099 15.005 3.73201 15.4177 3.695C15.8303 3.65798 16.2431 3.76522 16.5855 3.99843C16.9289 4.23297 17.1814 4.57826 17.3008 4.97659C17.4202 5.37492 17.3993 5.80217 17.2415 6.18693C17.0854 6.57103 16.8013 6.88934 16.4374 7.08791C16.0734 7.28647 15.652 7.35308 15.2445 7.27643C14.8368 7.19789 14.4685 6.98131 14.2017 6.66314C13.9349 6.34497 13.7858 5.94462 13.7795 5.52943C13.5885 5.7969 13.3586 6.03435 13.0975 6.23393C13.4775 7.51943 14.766 8.30443 16.0745 8.04743C17.383 7.79043 18.283 6.57493 18.1545 5.24043C18.025 3.90543 16.9095 2.88743 15.576 2.88843V2.89493Z" fill="#535861"/>
<path fill-rule="evenodd" clip-rule="evenodd" d="M7.49774 3.655C7.49774 5.6735 9.12424 7.31 11.1307 7.31C13.1357 7.3065 14.7607 5.6725 14.7637 3.655C14.7637 1.6365 13.1372 0 11.1307 0C9.12424 0 7.49774 1.6365 7.49774 3.655ZM8.49824 2.56C8.71231 2.03737 9.07693 1.59019 9.54577 1.27529C10.0146 0.960391 10.5665 0.791993 11.1312 0.7915C12.7022 0.794 13.9752 2.0745 13.9772 3.655C13.9785 4.22066 13.8124 4.77406 13.4997 5.24546C13.1871 5.71686 12.7419 6.08518 12.2202 6.304C11.6997 6.52113 11.1262 6.57806 10.5731 6.46753C10.02 6.357 9.51239 6.08402 9.11524 5.6835C8.71638 5.28129 8.44508 4.77032 8.33532 4.21461C8.22556 3.65889 8.28224 3.08365 8.49824 2.56Z" fill="#535861"/>
<path d="M12.3292 3.3761L11.1642 4.5086L10.0387 3.3761L9.48121 3.9496L10.7327 5.1966V9.8031H11.5277V5.2946L12.8952 3.9526L12.3292 3.3766V3.3761ZM18.3157 31.8376C16.4567 31.8376 15.2692 30.5906 14.7242 29.8221C14.1812 30.5821 13.0017 31.8376 11.1407 31.8376C9.27971 31.8376 8.07171 30.5761 7.52021 29.8176C6.97721 30.5786 5.79771 31.8376 3.93021 31.8376C1.31571 31.8376 0.0477139 29.3651 0.00671387 29.2591L0.708714 28.9036L0.347214 29.0906L0.698214 28.9141C0.708714 28.9346 1.80771 31.0561 3.93071 31.0561C6.05371 31.0561 7.15271 28.9346 7.16471 28.9141L7.50971 28.2281L7.86321 28.9096C7.87521 28.9306 9.01121 31.0561 11.1407 31.0561C13.2702 31.0561 14.3627 28.9346 14.3732 28.9141L14.7242 28.2181L15.0752 28.9121C15.0752 28.9326 16.1902 31.0561 18.3157 31.0561C20.4407 31.0561 21.5377 28.9346 21.5482 28.9141L22.2502 29.2691C22.1987 29.3651 20.9302 31.8376 18.3157 31.8376Z" fill="#535861"/>
<path fill-rule="evenodd" clip-rule="evenodd" d="M2.93524 23.8545V9.16345H19.5037V23.855L11.1967 28.218L2.93524 23.8545ZM11.1842 27.3165L18.7102 23.368V10.057H3.65824V23.368L11.1842 27.3165Z" fill="#535861"/>
<path fill-rule="evenodd" clip-rule="evenodd" d="M11.1868 10.8694H4.46429V22.8754L7.40329 24.4189L7.94829 24.7059L11.1828 26.4034L17.9013 22.8709V10.8694H11.1868ZM9.44229 19.6544C9.61067 19.8238 9.72527 20.0392 9.77173 20.2735C9.81819 20.5078 9.79443 20.7506 9.70343 20.9715C9.61244 21.1923 9.45827 21.3814 9.26024 21.515C9.06222 21.6486 8.82916 21.7207 8.59029 21.7224C8.43184 21.7223 8.27497 21.6909 8.12874 21.6298C7.98251 21.5688 7.84981 21.4795 7.73829 21.3669L6.87129 20.4939C6.70299 20.3238 6.58856 20.1079 6.54231 19.8731C6.49607 19.6383 6.52006 19.3951 6.61129 19.1739C6.70178 18.9531 6.85584 18.7641 7.05391 18.631C7.25199 18.4979 7.48516 18.4267 7.72379 18.4264C7.88202 18.4258 8.03878 18.4567 8.1849 18.5174C8.33102 18.5781 8.46357 18.6673 8.57479 18.7799L8.81879 19.0269L10.1528 17.6849L10.6278 18.1649L9.29579 19.5049L9.44229 19.6544ZM14.5183 21.3584L15.3858 20.4854V20.4939C15.6109 20.2658 15.7371 19.9583 15.7371 19.6379C15.7371 19.3175 15.6109 19.0099 15.3858 18.7819C15.2742 18.6694 15.1415 18.5801 14.9953 18.5192C14.8491 18.4583 14.6922 18.4269 14.5338 18.4269C14.3754 18.4269 14.2185 18.4583 14.0723 18.5192C13.9261 18.5801 13.7934 18.6694 13.6818 18.7819L13.4383 19.0269L11.6043 17.1819L13.3203 15.4549L14.3533 16.4939L14.8303 16.0139L13.7973 14.9749L14.2253 14.5449L15.2473 15.5839L15.7163 15.1039L14.2168 13.5974L11.1188 16.7144L8.02079 13.5974L6.52129 15.1039L6.99829 15.5839L8.03129 14.5449L8.46879 14.9604L7.43629 15.9994L7.91329 16.4944L8.93579 15.4549L12.9528 19.5049L12.8063 19.6549C12.6576 19.8065 12.5512 19.9945 12.4977 20.2C12.4442 20.4055 12.4454 20.6215 12.5013 20.8264C12.6143 21.2439 12.9408 21.5684 13.3568 21.6784C13.5614 21.7323 13.7767 21.7311 13.9807 21.6749C14.1847 21.6187 14.3701 21.5095 14.5183 21.3584Z" fill="#535861"/>
<path d="M21.552 24.5758C21.552 24.5968 20.455 26.7203 18.3195 26.7203C16.874 26.7203 15.8945 25.7313 15.428 25.0973L11.192 27.3208L6.863 25.0518C6.4005 25.6753 5.4175 26.7143 3.9345 26.7143C1.8155 26.7143 0.7185 24.6028 0.702 24.5693L0 24.9353C0.0515 25.0413 1.32 27.5143 3.9345 27.5143C5.7935 27.5143 6.981 26.2548 7.5245 25.4943C8.0755 26.2528 9.2775 27.5143 11.1445 27.5143C13.0115 27.5143 14.1845 26.2673 14.728 25.4983C15.273 26.2588 16.4565 27.5143 18.3195 27.5143C20.9345 27.5143 22.2025 25.0413 22.244 24.9353L21.552 24.5758ZM14.532 19.1048C14.392 19.1048 14.257 19.1608 14.1585 19.2608L13.291 20.1333C13.1908 20.2337 13.1346 20.3698 13.1346 20.5116C13.1346 20.6534 13.1908 20.7894 13.291 20.8898C13.501 21.0908 13.831 21.0908 14.0405 20.8898L14.908 20.0168C15.0605 19.8643 15.106 19.6343 15.0235 19.4343C14.941 19.2343 14.747 19.1043 14.532 19.1048ZM8.099 19.2603C8.03319 19.1937 7.95087 19.1457 7.86046 19.1213C7.77004 19.0968 7.67476 19.0968 7.58433 19.1212C7.4939 19.1456 7.41156 19.1935 7.34571 19.2601C7.27987 19.3267 7.23286 19.4096 7.2095 19.5003C7.1605 19.6848 7.213 19.8818 7.347 20.0168L8.2145 20.8893C8.31562 20.9864 8.45034 21.0406 8.5905 21.0406C8.73066 21.0406 8.86538 20.9864 8.9665 20.8893C9.0658 20.7886 9.12147 20.6528 9.12147 20.5113C9.12147 20.3699 9.0658 20.2341 8.9665 20.1333L8.099 19.2603Z" fill="#535861"/>
</g>
<defs>
<clipPath id="clip0_2_558">
<rect width="76.5" height="32" fill="white"/>
</clipPath>
</defs>
</svg>
