<svg width="32" height="32" viewBox="0 0 32 32" fill="none" xmlns="http://www.w3.org/2000/svg">
<circle cx="16" cy="16" r="16" fill="none"/>
<path d="M16.4867 16.3409C13.7963 16.3409 11.5607 13.9948 11.5607 11.2186C11.5607 8.34618 13.7963 6 16.4879 6C19.27 6 21.4139 8.34618 21.4139 11.2186C21.4118 11.8948 21.2825 12.564 21.0336 13.1877C20.7847 13.8114 20.421 14.3774 19.9634 14.8532C19.5058 15.3291 18.9632 15.7054 18.3668 15.9607C17.7704 16.216 17.1307 16.3452 16.4867 16.3409ZM16.4867 9.01616C15.3475 9.01616 14.4808 10.0211 14.4808 11.2186C14.4808 12.4148 15.3475 13.3248 16.4879 13.3248C17.6736 13.3248 18.495 12.4148 18.495 11.2186C18.495 10.0211 17.6724 9.01616 16.4867 9.01616ZM18.4486 20.602L21.2318 23.427C21.7794 24.0482 21.7794 24.9582 21.2318 25.5331C20.639 26.1556 19.7259 26.1556 19.27 25.5331L16.4879 22.6595L13.7963 25.5331C13.5225 25.8206 13.1571 25.9631 12.7464 25.9631C12.4273 25.9631 12.063 25.8194 11.7428 25.5331C11.1952 24.9582 11.1952 24.0482 11.7428 23.4257L14.5713 20.6008C13.5497 20.283 12.5697 19.8333 11.6535 19.2621C10.969 18.8796 10.8321 17.9221 11.1964 17.2034C11.6535 16.4859 12.4737 16.2947 13.2047 16.7734C14.1938 17.4074 15.3302 17.7429 16.4891 17.7429C17.648 17.7429 18.7844 17.4074 19.7735 16.7734C20.5033 16.2947 21.3699 16.4859 21.7806 17.2034C22.1913 17.9221 22.0092 18.8783 21.3699 19.2621C20.5033 19.8371 19.4997 20.2683 18.4498 20.6033L18.4486 20.602Z" fill="white"/>
</svg>
