<svg width="32" height="32" viewBox="0 0 32 32" fill="none" xmlns="http://www.w3.org/2000/svg">
<circle cx="16" cy="16" r="16" fill="none"/>
<path d="M16.4326 22.8528C16.4326 22.8406 16.4224 22.8307 16.4102 22.8306C10.1793 22.8205 6.31574 18.5791 6.01539 11.5104C6.00352 11.231 6.22942 11 6.50909 11H8.74847C9.0214 11 9.24307 11.2191 9.25525 11.4917C9.45788 16.0253 11.3886 18.2542 13.1171 19.0162C13.4159 19.1479 13.7243 18.91 13.7243 18.5835V11.5C13.7243 11.2239 13.9481 11 14.2243 11H16.3316C16.6077 11 16.8316 11.2239 16.8316 11.5V15.1052C16.8316 15.4054 17.0961 15.6391 17.3817 15.5468C18.9285 15.0473 20.442 13.299 21.1132 11.3585C21.1861 11.148 21.3803 11 21.6031 11H23.6983C24.0077 11 24.2437 11.2789 24.1688 11.5791C23.6329 13.7254 22.238 15.4029 20.9995 16.3885C20.6897 16.6349 20.714 17.1528 21.0455 17.3691C22.3513 18.221 23.9555 19.793 24.8053 22.2479C24.9133 22.56 24.6737 22.875 24.3434 22.875H21.9933C21.7747 22.875 21.5831 22.7322 21.5075 22.5271C20.799 20.6052 19.3339 19.1251 17.3753 18.73C17.0863 18.6717 16.8316 18.9046 16.8316 19.1994V22.6755C16.8316 22.7857 16.7423 22.875 16.6321 22.875H16.4548C16.4425 22.875 16.4326 22.8651 16.4326 22.8528Z" fill="white"/>
</svg>
